:FULLY-SPECIFIED
:FORCE-ALL-JOINTS-BE-3DOF
:DEGREES
204
root -2.90033 16.3091 -36.1129 3.7832 0.646692 -2.93596
lfemur -23.9131 6.68216 -8.24852
ltibia 48.5871 -0 0
lfoot -23.766 0.372062 0.000161934
ltoes -9.84745 0 0
rfemur -23.7696 -7.48798 14.6514
rtibia 50.7536 -0 0
rfoot -27.6007 2.12975 1.08841e-05
rtoes -8.47024 0 0
lowerback 7.29953 1.94784 -1.69821
upperback -3.76634 2.53149 1.31599
thorax -8.21056 1.37118 1.97961
lowerneck -3.36742 -3.89976 -6.58543
upperneck 6.88593 -5.26827 6.06024
head 3.23667 -2.59453 2.98086
lclavicle -9.2318e-15 -6.96777e-15 -2.13978e-33
lhumerus -26.5253 -1.86606 88.8429
lradius 24.3509 -0 0
lwrist -31.2868 0 0
lhand -28.2901 30.0255 4.03116e-05
lfingers 7.12502 -0 0
lthumb -1.63693 60.158 3.07811e-05
rclavicle 9.37083e-15 8.94531e-16 0
rhumerus -32.2201 2.00684 -79.9423
rradius 30.3041 -0 0
rwrist 3.16804 0 0
rhand -19.9383 -26.9131 8.97529e-06
rfingers 7.12502 -0 0
rthumb 6.51106 -56.8901 -2.04862e-05
205
root -2.90076 16.3075 -36.1111 3.77155 0.653511 -2.90154
lfemur -23.9254 6.69031 -8.24403
ltibia 48.6326 -0 0
lfoot -23.7982 0.360962 0.00017141
ltoes -9.84752 0 0
rfemur -23.7762 -7.5081 14.6491
rtibia 50.7908 -0 0
rfoot -27.6083 2.1216 4.14427e-05
rtoes -8.49971 0 0
lowerback 7.29923 1.95169 -1.72821
upperback -3.75822 2.53231 1.30223
thorax -8.20242 1.37263 1.98192
lowerneck -3.42443 -3.90966 -6.55163
upperneck 6.92512 -5.27961 6.02983
head 3.25922 -2.59935 2.96279
lclavicle -9.12856e-15 -6.95746e-15 0
lhumerus -26.512 -1.88117 88.8594
lradius 24.359 -0 0
lwrist -31.2847 0 0
lhand -28.2951 30.0157 4.03116e-05
lfingers 7.12502 -0 0
lthumb -1.6417 60.1461 3.22828e-05
rclavicle 9.4079e-15 9.15911e-16 -2.11527e-33
rhumerus -32.2187 2.00814 -79.9437
rradius 30.2944 -0 0
rwrist 3.17397 0 0
rhand -19.9407 -26.9193 1.13112e-05
rfingers 7.12502 -0 0
rthumb 6.51418 -56.9004 -1.53847e-05
206
root -2.90138 16.305 -36.1106 3.76868 0.66911 -2.9246
lfemur -23.9381 6.69873 -8.23939
ltibia 48.6816 -0 0
lfoot -23.831 0.349674 0.000174639
ltoes -9.84771 0 0
rfemur -23.7828 -7.52812 14.6468
rtibia 50.8213 -0 0
rfoot -27.6204 2.10866 8.77045e-05
rtoes -8.52691 0 0
lowerback 7.29131 1.95374 -1.69565
upperback -3.74773 2.53866 1.30361
thorax -8.18527 1.37379 1.96455
lowerneck -3.43602 -3.91994 -6.54011
upperneck 6.9053 -5.29236 6.02499
head 3.25484 -2.60532 2.95808
lclavicle -9.02445e-15 -6.90723e-15 -1.30486e-32
lhumerus -26.4996 -1.89518 88.8747
lradius 24.3664 -0 0
lwrist -31.2829 0 0
lhand -28.3001 30.0058 3.94533e-05
lfingers 7.12502 -0 0
lthumb -1.64654 60.134 3.27928e-05
rclavicle 9.51575e-15 9.78109e-16 -8.19012e-33
rhumerus -32.2188 2.00696 -79.9424
rradius 30.2845 -0 0
rwrist 3.18121 0 0
rhand -19.9435 -26.9261 1.35663e-05
rfingers 7.12502 -0 0
rthumb 6.51687 -56.9092 -1.05501e-05
207
root -2.90215 16.303 -36.1086 3.76247 0.674298 -2.90984
lfemur -23.951 6.70731 -8.23466
ltibia 48.7329 -0 0
lfoot -23.8638 0.338387 0.00017141
ltoes -9.84803 0 0
rfemur -23.7892 -7.5478 14.6446
rtibia 50.844 -0 0
rfoot -27.6366 2.09147 0.000144936
rtoes -8.55153 0 0
lowerback 7.27704 1.94759 -1.7196
upperback -3.74702 2.52857 1.31085
thorax -8.17719 1.37036 1.98757
lowerneck -3.44052 -3.89992 -6.56686
upperneck 6.92316 -5.26432 6.02696
head 3.261 -2.59202 2.9652
lclavicle -8.7219e-15 -6.76128e-15 -5.04483e-32
lhumerus -26.4884 -1.90792 88.8885
lradius 24.3729 -0 0
lwrist -31.2814 0 0
lhand -28.305 29.9961 3.77695e-05
lfingers 7.12502 -0 0
lthumb -1.65138 60.122 3.22828e-05
rclavicle 9.68931e-15 1.07821e-15 -1.7721e-32
rhumerus -32.219 2.00357 -79.9388
rradius 30.2744 -0 0
rwrist 3.18958 0 0
rhand -19.9464 -26.9335 1.56306e-05
rfingers 7.12502 -0 0
rthumb 6.51906 -56.9164 -6.30097e-06
